<svg width="24" height="22" viewBox="0 0 24 22" fill="none" xmlns="http://www.w3.org/2000/svg">
<g id="Group 54">
<path id="Vector" d="M1 0.999023H4.99999L7.67999 14.3898C7.77144 14.8502 8.0219 15.2638 8.38754 15.5581C8.75317 15.8525 9.21069 16.0089 9.67999 15.9999H19.4C19.8693 16.0089 20.3268 15.8525 20.6924 15.5581C21.0581 15.2638 21.3085 14.8502 21.4 14.3898L23 5.99931H5.99999" stroke="#030D15" stroke-width="2" stroke-linecap="round" stroke-linejoin="round"/>
<path id="Vector_2" d="M9 21C9.55228 21 10 20.5524 10 20.0002C10 19.4481 9.55228 19.0005 9 19.0005C8.44772 19.0005 8 19.4481 8 20.0002C8 20.5524 8.44772 21 9 21Z" stroke="#030D15" stroke-width="2" stroke-linecap="round" stroke-linejoin="round"/>
<path id="Vector_3" d="M20 21C20.5523 21 21 20.5524 21 20.0002C21 19.4481 20.5523 19.0005 20 19.0005C19.4477 19.0005 19 19.4481 19 20.0002C19 20.5524 19.4477 21 20 21Z" stroke="#030D15" stroke-width="2" stroke-linecap="round" stroke-linejoin="round"/>
</g>
</svg>
