<svg width="177" height="17" viewBox="0 0 177 17" fill="none" xmlns="http://www.w3.org/2000/svg">
<g id="Group 83" opacity="0.6">
<path id="Vector" d="M9.25 1.00098H7C6.00544 1.00098 5.05161 1.39606 4.34835 2.09933C3.64509 2.80259 3.25 3.75641 3.25 4.75098V7.00098H1V10.001H3.25V16.001H6.25V10.001H8.5L9.25 7.00098H6.25V4.75098C6.25 4.55206 6.32902 4.3613 6.46967 4.22065C6.61032 4.07999 6.80109 4.00098 7 4.00098H9.25V1.00098Z" stroke="white" stroke-linecap="round" stroke-linejoin="round"/>
<g id="Group 81">
<path id="Vector_2" d="M45.5 1.00098H38C35.9289 1.00098 34.25 2.67991 34.25 4.75098V12.251C34.25 14.322 35.9289 16.001 38 16.001H45.5C47.5711 16.001 49.25 14.322 49.25 12.251V4.75098C49.25 2.67991 47.5711 1.00098 45.5 1.00098Z" stroke="white" stroke-linecap="round" stroke-linejoin="round"/>
<path id="Vector_3" d="M44.75 8.02744C44.8426 8.65168 44.736 9.28921 44.4453 9.84935C44.1547 10.4095 43.6949 10.8637 43.1312 11.1474C42.5676 11.4312 41.9289 11.5299 41.3059 11.4297C40.6829 11.3294 40.1073 11.0352 39.6612 10.589C39.215 10.1428 38.9208 9.56722 38.8206 8.94418C38.7203 8.32113 38.8191 7.68234 39.1028 7.11865C39.3865 6.55497 39.8407 6.09509 40.4008 5.80445C40.9609 5.5138 41.5983 5.40717 42.2225 5.49974C42.8592 5.59416 43.4487 5.89087 43.9038 6.34604C44.3589 6.80121 44.6556 7.3907 44.75 8.02744Z" stroke="white" stroke-linecap="round" stroke-linejoin="round"/>
<path id="Vector_4" d="M45.875 4.37451H45.8824" stroke="white" stroke-linecap="round" stroke-linejoin="round"/>
</g>
<path id="Vector_5" d="M92.6406 1.00938C91.8401 1.57405 90.9538 2.00593 90.0157 2.28838C89.5123 1.7095 88.8432 1.2992 88.0989 1.11298C87.3547 0.926758 86.5712 0.9736 85.8545 1.24717C85.1377 1.52074 84.5223 2.00784 84.0914 2.64259C83.6605 3.27734 83.4349 4.02911 83.4452 4.79623V5.63218C81.9761 5.67027 80.5204 5.34446 79.2078 4.68375C77.8951 4.02304 76.7662 3.04796 75.9217 1.84533C75.9217 1.84533 72.5779 9.36887 80.1014 12.7127C78.3798 13.8813 76.3289 14.4673 74.2498 14.3846C81.7733 18.5643 90.9687 14.3846 90.9687 4.77115C90.968 4.5383 90.9456 4.30603 90.9019 4.07731C91.755 3.23593 92.3571 2.17362 92.6406 1.00938V1.00938Z" stroke="white" stroke-linecap="round" stroke-linejoin="round"/>
<g id="Group 82">
<path id="Vector_6" d="M128.141 6.5C129.334 6.5 130.479 6.97413 131.323 7.81809C132.167 8.66204 132.641 9.80669 132.641 11.0002V16.2505H129.641V11.0002C129.641 10.6024 129.483 10.2208 129.201 9.93951C128.92 9.65819 128.539 9.50015 128.141 9.50015C127.743 9.50015 127.361 9.65819 127.08 9.93951C126.799 10.2208 126.641 10.6024 126.641 11.0002V16.2505H123.641V11.0002C123.641 9.80669 124.115 8.66204 124.959 7.81809C125.803 6.97413 126.947 6.5 128.141 6.5V6.5Z" stroke="white" stroke-linecap="round" stroke-linejoin="round"/>
<path id="Vector_7" d="M120.641 7.25H117.641V16.2505H120.641V7.25Z" stroke="white" stroke-linecap="round" stroke-linejoin="round"/>
<path id="Vector_8" d="M119.141 5C119.969 5 120.641 4.32843 120.641 3.5C120.641 2.67157 119.969 2 119.141 2C118.312 2 117.641 2.67157 117.641 3.5C117.641 4.32843 118.312 5 119.141 5Z" stroke="white" stroke-linecap="round" stroke-linejoin="round"/>
</g>
<g id="Group 80">
<path id="Vector_9" d="M175.264 4.979C175.167 4.5907 174.969 4.23493 174.69 3.94762C174.411 3.6603 174.062 3.45162 173.677 3.34266C172.269 2.99902 166.641 2.99902 166.641 2.99902C166.641 2.99902 161.012 2.99902 159.605 3.37538C159.219 3.48435 158.87 3.69303 158.591 3.98034C158.313 4.26766 158.115 4.62343 158.017 5.01172C157.76 6.43989 157.634 7.88867 157.641 9.33985C157.632 10.802 157.758 12.2618 158.017 13.7007C158.125 14.0769 158.327 14.4192 158.605 14.6944C158.883 14.9695 159.227 15.1683 159.605 15.2716C161.012 15.648 166.641 15.6479 166.641 15.6479C166.641 15.6479 172.269 15.648 173.677 15.2716C174.062 15.1626 174.411 14.9539 174.69 14.6666C174.969 14.3793 175.167 14.0235 175.264 13.6352C175.519 12.2178 175.645 10.7801 175.64 9.33985C175.649 7.87774 175.523 6.41791 175.264 4.979V4.979Z" stroke="white" stroke-linecap="round" stroke-linejoin="round"/>
<path id="Vector_10" d="M164.8 12.0151L169.504 9.33984L164.8 6.66455V12.0151Z" stroke="white" stroke-linecap="round" stroke-linejoin="round"/>
</g>
</g>
</svg>
