<svg width="18" height="18" viewBox="0 0 18 18" fill="none" xmlns="http://www.w3.org/2000/svg">
<g id="Group 12">
<path id="Vector" d="M6.81805 16.2727C7.21969 16.2727 7.54529 15.9471 7.54529 15.5454C7.54529 15.1437 7.21969 14.8181 6.81805 14.8181C6.41641 14.8181 6.09082 15.1437 6.09082 15.5454C6.09082 15.9471 6.41641 16.2727 6.81805 16.2727Z" stroke="#030D15" stroke-width="1.5" stroke-linecap="round" stroke-linejoin="round"/>
<path id="Vector_2" d="M14.8181 16.2727C15.2198 16.2727 15.5454 15.9471 15.5454 15.5454C15.5454 15.1437 15.2198 14.8181 14.8181 14.8181C14.4164 14.8181 14.0908 15.1437 14.0908 15.5454C14.0908 15.9471 14.4164 16.2727 14.8181 16.2727Z" stroke="#030D15" stroke-width="1.5" stroke-linecap="round" stroke-linejoin="round"/>
<path id="Vector_3" d="M1 0.999756H3.90911L5.85822 10.7379C5.92472 11.0728 6.10688 11.3735 6.3728 11.5876C6.63872 11.8017 6.97146 11.9154 7.31278 11.9088H14.3819C14.7232 11.9154 15.056 11.8017 15.3219 11.5876C15.5878 11.3735 15.77 11.0728 15.8365 10.7379L17.0001 4.63612H4.63639" stroke="#030D15" stroke-width="1.5" stroke-linecap="round" stroke-linejoin="round"/>
</g>
</svg>
