<svg width="23" height="22" viewBox="0 0 23 22" fill="none" xmlns="http://www.w3.org/2000/svg">
<path d="M6.81805 20.2727C7.21969 20.2727 7.54529 19.9471 7.54529 19.5454C7.54529 19.1437 7.21969 18.8181 6.81805 18.8181C6.41641 18.8181 6.09082 19.1437 6.09082 19.5454C6.09082 19.9471 6.41641 20.2727 6.81805 20.2727Z" stroke="#030D15" stroke-width="1.5" stroke-linecap="round" stroke-linejoin="round"/>
<path d="M14.8181 20.2727C15.2198 20.2727 15.5454 19.9471 15.5454 19.5454C15.5454 19.1437 15.2198 18.8181 14.8181 18.8181C14.4164 18.8181 14.0908 19.1437 14.0908 19.5454C14.0908 19.9471 14.4164 20.2727 14.8181 20.2727Z" stroke="#030D15" stroke-width="1.5" stroke-linecap="round" stroke-linejoin="round"/>
<path d="M1 4.99976H3.90911L5.85822 14.7379C5.92472 15.0728 6.10688 15.3735 6.3728 15.5876C6.63872 15.8017 6.97146 15.9154 7.31278 15.9088H14.3819C14.7232 15.9154 15.056 15.8017 15.3219 15.5876C15.5878 15.3735 15.77 15.0728 15.8365 14.7379L17.0001 8.63612H4.63639" stroke="#030D15" stroke-width="1.5" stroke-linecap="round" stroke-linejoin="round"/>
<circle cx="17" cy="8" r="6" fill="#C72535"/>
<path d="M19.15 9.2C19.15 9.73333 18.9633 10.1767 18.59 10.53C18.2167 10.8833 17.69 11.06 17.01 11.06C16.3833 11.06 15.84 10.95 15.38 10.73V9.94C15.8733 10.2 16.41 10.33 16.99 10.33C17.4167 10.33 17.7467 10.22 17.98 10C18.22 9.78 18.34 9.49333 18.34 9.14C18.34 8.78667 18.2067 8.51667 17.94 8.33C17.68 8.13667 17.3033 8.04 16.81 8.04H16.39V7.35H16.81C17.1833 7.35 17.4967 7.24667 17.75 7.04C18.01 6.82667 18.14 6.54333 18.14 6.19C18.14 5.83667 18.03 5.57 17.81 5.39C17.59 5.21 17.2867 5.12 16.9 5.12C16.44 5.12 16 5.25667 15.58 5.53V4.76C15.9667 4.51333 16.4133 4.39 16.92 4.39C17.5667 4.39 18.0667 4.55667 18.42 4.89C18.78 5.21667 18.96 5.62333 18.96 6.11C18.96 6.46333 18.87 6.78 18.69 7.06C18.5167 7.34 18.2567 7.55 17.91 7.69C18.29 7.77667 18.59 7.95333 18.81 8.22C19.0367 8.48 19.15 8.80667 19.15 9.2Z" fill="white"/>
</svg>
