<svg width="16" height="19" viewBox="0 0 16 19" fill="none" xmlns="http://www.w3.org/2000/svg">
<g id="Group 63">
<path id="Vector" d="M13.2221 6.18055C12.5663 6.18055 12.0346 6.71222 12.0346 7.36805V6.5764C12.0346 5.92056 11.503 5.3889 10.8471 5.3889C10.1913 5.3889 9.65965 5.92056 9.65965 6.5764V5.78474C9.65965 5.12891 9.12798 4.59725 8.47215 4.59725C7.81632 4.59725 7.28465 5.12891 7.28465 5.78474V1.82641C7.28465 1.17058 6.75299 0.638916 6.09716 0.638916C5.44132 0.638916 4.90966 1.17058 4.90966 1.82641V11.7222L2.16101 10.3479C1.88622 10.2105 1.58318 10.1389 1.27592 10.1389C0.659421 10.1389 0.15967 10.6386 0.15967 11.2551V11.2599C0.15904 11.5568 0.276713 11.8416 0.486641 12.0515L5.60553 17.1704C6.68107 18.2449 8.13939 18.848 9.65965 18.8472C12.283 18.8472 14.4096 16.7205 14.4096 14.0972V7.36805C14.4096 6.71222 13.878 6.18055 13.2221 6.18055Z" fill="#FAFAFA"/>
<path id="Vector_2" d="M9.89598 19C8.26974 19.0046 6.70925 18.3584 5.56239 17.2053L0.443493 12.0867C-0.148066 11.4948 -0.147806 10.5355 0.444124 9.94395C0.727528 9.66074 1.11157 9.50129 1.51224 9.50048C1.8807 9.50077 2.24404 9.58642 2.57387 9.75062L4.75014 10.8391V1.58424C4.75018 0.70984 5.45904 0.000976562 6.33348 0.000976562C7.20793 0.000976562 7.91683 0.70984 7.91683 1.58424V4.17207C8.67397 3.73461 9.64241 3.9937 10.0799 4.7508C10.1292 4.83622 10.1705 4.92602 10.2031 5.01912C10.9298 4.53265 11.9132 4.72731 12.3997 5.45387C12.474 5.56483 12.5339 5.68476 12.5781 5.81074C13.305 5.32456 14.2883 5.51963 14.7745 6.24642C14.9486 6.50661 15.0416 6.81256 15.0418 7.12564V13.8544C15.0383 16.6948 12.7365 18.9965 9.89598 19ZM1.51224 10.2921C1.11261 10.2932 0.789575 10.6181 0.790725 11.0177C0.791282 11.2088 0.867356 11.3918 1.00243 11.527L6.12133 16.6457C7.12042 17.6496 8.47959 18.2123 9.89598 18.2083C12.2994 18.2053 14.2471 16.2577 14.2501 13.8544V7.1256C14.2501 6.6884 13.8957 6.33399 13.4585 6.33399C13.0213 6.33399 12.6668 6.6884 12.6668 7.1256V9.10465C12.6668 9.32325 12.4896 9.50048 12.271 9.50048C12.0524 9.50048 11.8751 9.32325 11.8751 9.10465V6.33395C11.8751 5.89675 11.5207 5.54234 11.0835 5.54234C10.6463 5.54234 10.2918 5.89675 10.2918 6.33395V9.10465C10.2918 9.32325 10.1146 9.50048 9.89598 9.50048C9.67737 9.50048 9.50013 9.32325 9.50013 9.10465V5.54234C9.50013 5.10514 9.1457 4.75073 8.70848 4.75073C8.27126 4.75073 7.91683 5.10514 7.91683 5.54234V9.10465C7.91683 9.32325 7.73959 9.50048 7.52098 9.50048C7.30237 9.50048 7.12514 9.32325 7.12514 9.10465V1.58424C7.12514 1.14704 6.77071 0.792626 6.33348 0.792626C5.89626 0.792626 5.54183 1.14704 5.54183 1.58424V11.4796C5.54183 11.6982 5.3646 11.8754 5.14599 11.8754C5.08442 11.8754 5.02371 11.861 4.96868 11.8334L2.21684 10.4591C1.99797 10.35 1.75683 10.2929 1.51224 10.2921Z" fill="black"/>
</g>
</svg>
