<svg width="67" height="66" viewBox="0 0 67 66" fill="none" xmlns="http://www.w3.org/2000/svg">
<g id="Group 165">
<g id="Group">
<path id="Vector" d="M5.08699 64.3751V65.8467H0V58.23H1.71921V64.3751H5.08699Z" fill="#247CC0"/>
<path id="Vector_2" d="M6.19415 58.23H7.91336V65.8467H6.19415V58.23Z" fill="#247CC0"/>
<path id="Vector_3" d="M14.778 65.8467C14.2835 64.9755 13.7536 64.1161 13.1883 63.2568C12.6113 62.4092 12.0108 61.6086 11.3631 60.8434V65.8349H9.66748V58.23H11.0688C11.316 58.4772 11.5751 58.7715 11.8695 59.1247C12.1639 59.4778 12.4583 59.8546 12.7644 60.2548C13.0706 60.6551 13.3767 61.0671 13.6711 61.5027C13.9773 61.9265 14.2599 62.3385 14.519 62.7388V58.23H16.2264V65.8467H14.778Z" fill="#247CC0"/>
<path id="Vector_4" d="M22.479 65.8466C22.326 65.5994 22.1375 65.3287 21.9374 65.0461C21.7254 64.7636 21.5017 64.4693 21.2544 64.175C21.0071 63.8807 20.7598 63.5981 20.489 63.3391C20.2299 63.0684 19.9591 62.8329 19.7 62.6328V65.8584H17.9808V58.23H19.7V61.0906C20.1357 60.6315 20.5949 60.1371 21.0424 59.6427C21.5017 59.1364 21.9138 58.6656 22.3024 58.23H24.3396C23.8214 58.8421 23.3033 59.4425 22.7734 60.0076C22.2435 60.5727 21.6901 61.1495 21.1131 61.7263C21.7254 62.2325 22.3142 62.8329 22.8794 63.5393C23.4446 64.2338 23.9863 65.0108 24.5162 65.8466H22.479Z" fill="#247CC0"/>
<path id="Vector_5" d="M25.5061 65.8467V58.23H30.652V59.6662H27.2253V61.1613H30.2752V62.574H27.2253V64.4105H30.9111V65.8467H25.5061V65.8467Z" fill="#247CC0"/>
<path id="Vector_6" d="M38.8475 62.0321C38.8475 62.6916 38.7415 63.2686 38.5413 63.7632C38.3411 64.2578 38.0467 64.6582 37.6699 64.9879C37.2931 65.3059 36.8339 65.5532 36.2922 65.718C35.7505 65.8829 35.1382 65.9653 34.467 65.9653C34.1608 65.9653 33.7958 65.9536 33.3837 65.93C32.9715 65.9065 32.5711 65.8476 32.1708 65.7651V58.3344C32.5711 58.2638 32.9833 58.2167 33.4072 58.1813C33.8311 58.1578 34.2079 58.146 34.5141 58.146C35.1617 58.146 35.7623 58.2167 36.2922 58.3697C36.8221 58.5111 37.2813 58.7466 37.6582 59.0645C38.035 59.3825 38.3294 59.7829 38.5413 60.2775C38.7415 60.7485 38.8475 61.3373 38.8475 62.0321ZM33.89 64.4462C33.9724 64.458 34.0666 64.458 34.1726 64.458C34.2786 64.458 34.4081 64.458 34.5494 64.458C35.409 64.458 36.0449 64.246 36.457 63.8103C36.8692 63.3746 37.0812 62.7858 37.0812 62.0203C37.0812 61.2196 36.881 60.619 36.4924 60.2068C36.092 59.7947 35.4679 59.5945 34.6083 59.5945C34.4906 59.5945 34.3728 59.5945 34.2433 59.5945C34.1137 59.5945 33.996 59.6062 33.89 59.618V64.4462V64.4462Z" fill="#247CC0"/>
<path id="Vector_7" d="M45.6766 58.23V59.6898H43.3804V65.8467H41.6612V59.6898H39.365V58.23H45.6766Z" fill="#247CC0"/>
<path id="Vector_8" d="M46.7837 65.8467V58.23H51.9296V59.6662H48.5029V61.1613H51.5528V62.574H48.5029V64.4105H52.1886V65.8467H46.7837V65.8467Z" fill="#247CC0"/>
<path id="Vector_9" d="M56.9221 66.001C55.6856 66.001 54.7436 65.6595 54.0842 64.9646C53.4365 64.2698 53.1068 63.2923 53.1068 62.0322C53.1068 61.3963 53.201 60.8428 53.4012 60.3482C53.6014 59.8535 53.8722 59.4296 54.2137 59.0998C54.5552 58.7583 54.9673 58.4992 55.4501 58.3226C55.9212 58.1459 56.4393 58.0635 57.0045 58.0635C57.3224 58.0635 57.6168 58.087 57.8877 58.1341C58.1467 58.1812 58.3822 58.2401 58.5824 58.299C58.7826 58.3579 58.9474 58.4286 59.077 58.4874C59.2065 58.5581 59.3007 58.6052 59.3596 58.6405L58.865 60.0302C58.6295 59.9006 58.3587 59.7947 58.0407 59.7122C57.7346 59.6298 57.3695 59.5827 56.981 59.5827C56.7219 59.5827 56.4628 59.6298 56.2038 59.7122C55.9565 59.7947 55.7327 59.936 55.5326 60.1362C55.3324 60.3364 55.1793 60.5837 55.0615 60.8899C54.9438 61.1961 54.8849 61.5729 54.8849 62.0087C54.8849 62.362 54.9202 62.6917 55.0027 62.9979C55.0851 63.3041 55.2029 63.5632 55.3795 63.787C55.5561 64.0107 55.7798 64.1756 56.0507 64.3051C56.3333 64.4347 56.663 64.4936 57.0634 64.4936C57.3107 64.4936 57.5344 64.4818 57.7346 64.4465C57.9348 64.4229 58.1114 64.3876 58.2645 64.3405C58.4176 64.3051 58.5589 64.258 58.6766 64.1991C58.7944 64.152 58.9004 64.1049 58.9946 64.0578L59.4656 65.4357C59.2183 65.577 58.8768 65.7183 58.4411 65.8361C58.0054 65.9421 57.4991 66.001 56.9221 66.001Z" fill="#247CC0"/>
<path id="Vector_10" d="M65.1769 58.23H66.8961V65.8467H65.1769V62.6093H62.2919V65.8467H60.5726V58.23H62.2919V61.1495H65.1769V58.23Z" fill="#247CC0"/>
</g>
<g id="Group_2">
<path id="Vector_11" d="M21.8436 11.1816C21.9849 10.0279 22.4559 8.96836 23.1507 8.10895L21.3962 6.28418L15.9912 9.40395C15.3671 9.76891 14.8019 10.44 14.4487 11.1816H21.8436Z" fill="#262262"/>
<path id="Vector_12" d="M33.4425 31.4956L29.0856 18.0116C28.7206 18.0822 28.3438 18.1176 27.9552 18.1176C27.2133 18.1176 26.5068 17.988 25.8474 17.7407L21.5964 25.9607C22.197 26.5142 22.5856 27.315 22.5856 28.1982C22.5856 28.316 22.5738 28.4338 22.562 28.5515L32.3945 32.4849C32.6654 32.0962 33.0304 31.7547 33.4425 31.4956Z" fill="#1C75BC"/>
<path id="Vector_13" d="M19.5598 25.1829C19.7836 25.1829 19.9955 25.2064 20.2075 25.2535L24.4584 17.0349C23.0571 16.0694 22.0798 14.527 21.856 12.749H14.0842V12.7608V18.5421L18.606 25.3359C18.9004 25.2417 19.2183 25.1829 19.5598 25.1829Z" fill="#2B3990"/>
<path id="Vector_14" d="M35.2327 31.0001C35.4918 31.0001 35.7508 31.0354 35.9981 31.0825L41.2382 20.1907C40.1077 19.3782 39.3777 18.0594 39.3777 16.5522C39.3777 16.3991 39.3894 16.2343 39.4012 16.0812L33.6077 14.4092C33.0072 15.7868 31.9356 16.8937 30.5814 17.5295L34.9383 31.0119C35.0325 31.0119 35.1385 31.0001 35.2327 31.0001Z" fill="#1C75BC"/>
<path id="Vector_15" d="M46.4194 20.2251C46.1721 20.4017 45.9013 20.5548 45.6069 20.6726L46.7727 25.7127C48.0444 25.8304 49.0453 26.902 49.0453 28.1974C49.0453 28.5977 48.9511 28.9863 48.7745 29.3278L52.154 32.7075C52.5544 32.0598 52.8134 31.318 52.8134 30.6585V26.6312L46.4194 20.2251Z" fill="#2EA8E0"/>
<path id="Vector_16" d="M31.7586 34.4739C31.7586 34.2973 31.7704 34.1207 31.7939 33.944L21.9732 30.0107C21.7377 30.3169 21.4551 30.5878 21.1254 30.788L23.2921 38.2188L27.7903 40.8096L32.2885 36.311C31.9588 35.7811 31.7586 35.1452 31.7586 34.4739Z" fill="#2EA8E0"/>
<path id="Vector_17" d="M45.2417 26.0659L44.0759 21.0267C44.0053 21.0267 43.9229 21.0267 43.8522 21.0267C43.4401 21.0267 43.0279 20.9678 42.6511 20.8618L37.411 31.7526C37.5523 31.8704 37.6936 31.9999 37.8114 32.1294L44.0877 28.6561C44.0642 28.503 44.0406 28.35 44.0406 28.1852C44.0406 27.3021 44.5234 26.5015 45.2417 26.0659Z" fill="#2EA8E0"/>
<path id="Vector_18" d="M51.5651 9.95654L47.5261 13.9954C48.0325 14.7255 48.3386 15.6086 48.3386 16.5624C48.3386 17.5162 48.0442 18.3994 47.5261 19.1294L52.8133 24.4165V12.7708C52.8133 11.817 52.2951 10.6984 51.5651 9.95654Z" fill="#1C75BC"/>
<path id="Vector_19" d="M37.0694 37.4189C36.5395 37.7486 35.9037 37.9487 35.2325 37.9487C34.5613 37.9487 33.9254 37.7603 33.3955 37.4189L29.1917 41.6217L31.4996 42.952C32.5712 43.5642 34.314 43.5642 35.3738 42.952L39.9544 40.3032L37.0694 37.4189Z" fill="#5DCBEC"/>
<path id="Vector_20" d="M19.6184 31.2234C19.5948 31.2234 19.5713 31.2234 19.5595 31.2234C17.8874 31.2234 16.5332 29.8693 16.5332 28.1972C16.5332 27.4319 16.8158 26.7371 17.2869 26.1955L14.0721 21.3677V30.6465C14.0721 31.8829 14.9435 33.3901 16.0151 34.0024L21.3376 37.0757L19.6184 31.2234Z" fill="#1C75BC"/>
<path id="Vector_21" d="M47.6675 30.4335C47.326 30.5984 46.9492 30.7044 46.537 30.7044C45.8776 30.7044 45.2888 30.4571 44.8414 30.0449L38.565 33.5188C38.6475 33.825 38.6946 34.1429 38.6946 34.4727C38.6946 35.1439 38.5062 35.7798 38.1647 36.3097L41.3558 39.501L50.8586 34.0134C50.9293 33.9663 51.0117 33.9192 51.0824 33.8721L47.6675 30.4335Z" fill="#5DCBEC"/>
<path id="Vector_22" d="M34.1136 11.9707C34.1136 12.2886 34.0901 12.6066 34.043 12.9128L39.8365 14.585C40.4017 13.4427 41.4262 12.583 42.6862 12.2415L41.9679 4.26914L35.8564 0.736328L31.8409 7.1896C33.2305 8.3201 34.1136 10.0394 34.1136 11.9707Z" fill="#2B3990"/>
<path id="Vector_23" d="M24.293 7.02637C25.3174 6.26084 26.5892 5.81331 27.9669 5.81331C28.8736 5.81331 29.745 6.01352 30.5222 6.36684L34.4081 0.101333C33.4307 -0.110658 32.2885 0.00711891 31.5113 0.466433L22.821 5.48355L24.293 7.02637Z" fill="#262262"/>
<path id="Vector_24" d="M50.2583 9.051L43.6287 5.22461L44.241 12.1003C45.0417 12.171 45.7954 12.4535 46.4195 12.8892L50.2583 9.051Z" fill="#2B3990"/>
<g id="Group_3">
<path id="Vector_25" d="M22.5623 28.5624L32.3948 32.4956C32.6774 32.0952 33.0307 31.7537 33.4546 31.5064L29.5922 19.5537C26.7072 21.4143 24.1049 23.6518 21.8204 26.2072C22.2915 26.7371 22.5858 27.4437 22.5858 28.2209C22.5858 28.3269 22.5741 28.4446 22.5623 28.5624Z" fill="url(#paint0_linear_1_61)"/>
<path id="Vector_26" d="M35.2329 31.0015C35.492 31.0015 35.7511 31.0369 35.9983 31.084L41.2384 20.1903C40.108 19.3777 39.3779 18.0587 39.3779 16.5512C39.3779 16.3981 39.3897 16.2332 39.4015 16.0801L37.6587 15.5737C35.3154 16.3981 33.0662 17.4463 30.9584 18.6828L34.9385 31.0015C35.0327 31.0133 35.1387 31.0015 35.2329 31.0015Z" fill="url(#paint1_linear_1_61)"/>
<path id="Vector_27" d="M45.6069 20.6847L46.7727 25.7246C48.0444 25.8424 49.0454 26.9139 49.0454 28.2092C49.0454 28.6096 48.9512 28.9982 48.7745 29.3397L52.1541 32.7192C52.5544 32.0716 52.8135 31.3297 52.8135 30.6703V26.6431L46.4194 20.249C46.1721 20.4021 45.9013 20.5552 45.6069 20.6847Z" fill="url(#paint2_linear_1_61)"/>
<path id="Vector_28" d="M31.7592 34.4738C31.7592 34.2972 31.7709 34.1206 31.7945 33.944L21.9737 30.0112C21.7382 30.3174 21.4556 30.5882 21.1259 30.7884L23.2926 38.2182L27.7908 40.8086L32.289 36.3107C31.9593 35.7808 31.7592 35.145 31.7592 34.4738Z" fill="url(#paint3_linear_1_61)"/>
<path id="Vector_29" d="M37.812 32.1538L44.0883 28.6803C44.0648 28.5272 44.0412 28.3741 44.0412 28.2093C44.0412 27.3026 44.524 26.5137 45.2423 26.0663L44.0765 21.0267C44.0059 21.0267 43.9235 21.0267 43.8528 21.0267C43.4407 21.0267 43.0285 20.9678 42.6517 20.8618L37.4116 31.7535C37.5529 31.883 37.6825 32.0125 37.812 32.1538Z" fill="url(#paint4_linear_1_61)"/>
<path id="Vector_30" d="M48.3391 16.5634C48.3391 17.5172 48.0447 18.4004 47.5266 19.1306L52.8138 24.418V13.5487C51.966 13.4899 51.1181 13.4663 50.2585 13.4663C49.5049 13.4663 48.7513 13.4899 48.0094 13.537L47.5384 14.008C48.033 14.7263 48.3391 15.6095 48.3391 16.5634Z" fill="url(#paint5_linear_1_61)"/>
<path id="Vector_31" d="M35.2331 37.9479C34.5619 37.9479 33.926 37.7595 33.3961 37.418L29.1923 41.6218L31.5002 42.9524C32.5718 43.5647 34.3146 43.5647 35.3744 42.9524L39.955 40.303L37.0582 37.4062C36.5401 37.7595 35.9043 37.9479 35.2331 37.9479Z" fill="url(#paint6_linear_1_61)"/>
<path id="Vector_32" d="M19.6185 31.2233C19.595 31.2233 19.5714 31.2233 19.5597 31.2233C19.0769 31.2233 18.6176 31.1055 18.2173 30.9053C17.5343 31.9652 16.8984 33.0605 16.3214 34.1794L21.326 37.0767L19.6185 31.2233Z" fill="url(#paint7_linear_1_61)"/>
<path id="Vector_33" d="M46.549 30.7044C45.8896 30.7044 45.3008 30.4571 44.8533 30.0449L38.577 33.5188C38.6594 33.825 38.7065 34.1429 38.7065 34.4727C38.7065 35.1439 38.5181 35.7798 38.1766 36.3097L41.3678 39.501L50.8706 34.0134C50.9413 33.9663 51.0237 33.9192 51.0944 33.8721L47.6677 30.4453C47.3262 30.6102 46.9494 30.7044 46.549 30.7044Z" fill="url(#paint8_linear_1_61)"/>
</g>
</g>
</g>
<defs>
<linearGradient id="paint0_linear_1_61" x1="25.1825" y1="22.4233" x2="30.0768" y2="31.3958" gradientUnits="userSpaceOnUse">
<stop stop-color="white" stop-opacity="0.4"/>
<stop offset="1" stop-color="white" stop-opacity="0"/>
</linearGradient>
<linearGradient id="paint1_linear_1_61" x1="33.9478" y1="17.6425" x2="38.8428" y2="26.6155" gradientUnits="userSpaceOnUse">
<stop stop-color="white" stop-opacity="0.4"/>
<stop offset="1" stop-color="white" stop-opacity="0"/>
</linearGradient>
<linearGradient id="paint2_linear_1_61" x1="42.5764" y1="12.9363" x2="47.4704" y2="21.9086" gradientUnits="userSpaceOnUse">
<stop stop-color="white" stop-opacity="0.4"/>
<stop offset="1" stop-color="white" stop-opacity="0"/>
</linearGradient>
<linearGradient id="paint3_linear_1_61" x1="21.2633" y1="24.5623" x2="26.1568" y2="33.5343" gradientUnits="userSpaceOnUse">
<stop stop-color="white" stop-opacity="0.4"/>
<stop offset="1" stop-color="white" stop-opacity="0"/>
</linearGradient>
<linearGradient id="paint4_linear_1_61" x1="35.5059" y1="16.7937" x2="40.3995" y2="25.7658" gradientUnits="userSpaceOnUse">
<stop stop-color="white" stop-opacity="0.4"/>
<stop offset="1" stop-color="white" stop-opacity="0"/>
</linearGradient>
<linearGradient id="paint5_linear_1_61" x1="47.0038" y1="10.5213" x2="51.8981" y2="19.4938" gradientUnits="userSpaceOnUse">
<stop stop-color="white" stop-opacity="0.4"/>
<stop offset="1" stop-color="white" stop-opacity="0"/>
</linearGradient>
<linearGradient id="paint6_linear_1_61" x1="24.6283" y1="22.7267" x2="29.5222" y2="31.699" gradientUnits="userSpaceOnUse">
<stop stop-color="white" stop-opacity="0.4"/>
<stop offset="1" stop-color="white" stop-opacity="0"/>
</linearGradient>
<linearGradient id="paint7_linear_1_61" x1="15.3" y1="27.8133" x2="20.1952" y2="36.7863" gradientUnits="userSpaceOnUse">
<stop stop-color="white" stop-opacity="0.4"/>
<stop offset="1" stop-color="white" stop-opacity="0"/>
</linearGradient>
<linearGradient id="paint8_linear_1_61" x1="34.8537" y1="17.1469" x2="39.748" y2="26.1194" gradientUnits="userSpaceOnUse">
<stop stop-color="white" stop-opacity="0.4"/>
<stop offset="1" stop-color="white" stop-opacity="0"/>
</linearGradient>
</defs>
</svg>
