<svg width="35" height="35" viewBox="0 0 35 35" fill="none" xmlns="http://www.w3.org/2000/svg">
<g id="Group 15">
<circle id="Ellipse 1" cx="17.5" cy="17.5" r="17.5" fill="#F4F9FC"/>
<g id="Group 13">
<g id="Group">
<g id="Group_2">
<path id="Vector" d="M17.4549 18.0117C12.6474 18.0117 9.99976 20.286 9.99976 24.4156C9.99976 24.7382 10.2612 24.9996 10.5837 24.9996H24.3261C24.6486 24.9996 24.91 24.7382 24.91 24.4156C24.9101 20.2862 22.2624 18.0117 17.4549 18.0117ZM11.1889 23.8317C11.4186 20.744 13.5237 19.1796 17.4549 19.1796C21.3861 19.1796 23.4913 20.744 23.7211 23.8317H11.1889V23.8317Z" fill="#030D15"/>
</g>
</g>
<g id="Group_3">
<g id="Group_4">
<path id="Vector_2" d="M17.455 8.99976C15.2467 8.99976 13.5815 10.6984 13.5815 12.9509C13.5815 15.2694 15.3192 17.1553 17.455 17.1553C19.5909 17.1553 21.3285 15.2694 21.3285 12.9511C21.3285 10.6984 19.6633 8.99976 17.455 8.99976ZM17.455 15.9876C15.963 15.9876 14.7494 14.6255 14.7494 12.9511C14.7494 11.3383 15.8873 10.1676 17.455 10.1676C18.9976 10.1676 20.1606 11.3641 20.1606 12.9511C20.1606 14.6255 18.947 15.9876 17.455 15.9876Z" fill="#030D15"/>
</g>
</g>
</g>
</g>
</svg>
