<svg width="65" height="12" viewBox="0 0 65 12" fill="none" xmlns="http://www.w3.org/2000/svg">
<g id="Group 32">
<path id="Vector" d="M6.19037 -0.000244141L8.10323 3.87496L12.3809 4.50019L9.28561 7.51492L10.0161 11.7739L6.19037 9.76204L2.36465 11.7739L3.09512 7.51492L-0.00012207 4.50019L4.27751 3.87496L6.19037 -0.000244141Z" fill="#C72535"/>
<path id="Vector_2" d="M19.3452 -0.000244141L21.258 3.87496L25.5356 4.50019L22.4404 7.51492L23.1709 11.7739L19.3452 9.76204L15.5194 11.7739L16.2499 7.51492L13.1547 4.50019L17.4323 3.87496L19.3452 -0.000244141Z" fill="#C72535"/>
<path id="Vector_3" d="M32.4999 -0.000244141L34.4128 3.87496L38.6904 4.50019L35.5952 7.51492L36.3257 11.7739L32.4999 9.76204L28.6742 11.7739L29.4047 7.51492L26.3094 4.50019L30.5871 3.87496L32.4999 -0.000244141Z" fill="#C72535"/>
<path id="Vector_4" d="M45.6547 -0.000244141L47.5675 3.87496L51.8452 4.50019L48.7499 7.51492L49.4804 11.7739L45.6547 9.76204L41.829 11.7739L42.5595 7.51492L39.4642 4.50019L43.7418 3.87496L45.6547 -0.000244141Z" fill="#C72535"/>
<path id="Vector_5" d="M58.8094 -0.000244141L60.7223 3.87496L64.9999 4.50019L61.9047 7.51492L62.6351 11.7739L58.8094 9.76204L54.9838 11.7739L55.7142 7.51492L52.619 4.50019L56.8966 3.87496L58.8094 -0.000244141Z" fill="#F4F9FC"/>
</g>
</svg>
