<svg width="44" height="44" viewBox="0 0 44 44" fill="none" xmlns="http://www.w3.org/2000/svg">
<g id="Group 90">
<circle id="Ellipse 8" cx="22" cy="22" r="22" fill="#F3F3F3"/>
<circle id="Ellipse 7" cx="22" cy="22" r="19" fill="white"/>
<g id="Group 89">
<g id="Group 12">
<path id="Vector" d="M19.3182 30.2716C19.7199 30.2716 20.0455 29.946 20.0455 29.5444C20.0455 29.1427 19.7199 28.8171 19.3182 28.8171C18.9165 28.8171 18.5909 29.1427 18.5909 29.5444C18.5909 29.946 18.9165 30.2716 19.3182 30.2716Z" stroke="black" stroke-width="1.5" stroke-linecap="round" stroke-linejoin="round"/>
<path id="Vector_2" d="M27.3181 30.2716C27.7198 30.2716 28.0454 29.946 28.0454 29.5444C28.0454 29.1427 27.7198 28.8171 27.3181 28.8171C26.9164 28.8171 26.5908 29.1427 26.5908 29.5444C26.5908 29.946 26.9164 30.2716 27.3181 30.2716Z" stroke="black" stroke-width="1.5" stroke-linecap="round" stroke-linejoin="round"/>
<path id="Vector_3" d="M13.5 14.9995H16.4091L18.3582 24.7374C18.4247 25.0722 18.6068 25.373 18.8728 25.5871C19.1387 25.8011 19.4714 25.9148 19.8127 25.9083H26.8818C27.2231 25.9148 27.5558 25.8011 27.8218 25.5871C28.0877 25.373 28.2698 25.0722 28.3363 24.7374L29.5 18.6358H17.1364" stroke="black" stroke-width="1.5" stroke-linecap="round" stroke-linejoin="round"/>
</g>
</g>
</g>
</svg>
