<svg width="65" height="12" viewBox="0 0 65 12" fill="none" xmlns="http://www.w3.org/2000/svg">
<g id="Group 32">
<path id="Vector" d="M6.19048 0.000488281L8.10333 3.87585L12.381 4.50111L9.28571 7.51596L10.0162 11.7751L6.19048 9.76318L2.36476 11.7751L3.09524 7.51596L0 4.50111L4.27762 3.87585L6.19048 0.000488281Z" fill="#C72535"/>
<path id="Vector_2" d="M19.3452 0.000488281L21.2581 3.87585L25.5357 4.50111L22.4404 7.51596L23.1709 11.7751L19.3452 9.76318L15.5195 11.7751L16.25 7.51596L13.1547 4.50111L17.4323 3.87585L19.3452 0.000488281Z" fill="#C72535"/>
<path id="Vector_3" d="M32.5 0.000488281L34.4128 3.87585L38.6905 4.50111L35.5952 7.51596L36.3257 11.7751L32.5 9.76318L28.6743 11.7751L29.4047 7.51596L26.3095 4.50111L30.5871 3.87585L32.5 0.000488281Z" fill="#C72535"/>
<path id="Vector_4" d="M45.6547 0.000488281L47.5676 3.87585L51.8452 4.50111L48.75 7.51596L49.4804 11.7751L45.6547 9.76318L41.829 11.7751L42.5595 7.51596L39.4642 4.50111L43.7419 3.87585L45.6547 0.000488281Z" fill="#C72535"/>
<path id="Vector_5" d="M58.8095 0.000488281L60.7223 3.87585L64.9999 4.50111L61.9047 7.51596L62.6352 11.7751L58.8095 9.76318L54.9838 11.7751L55.7142 7.51596L52.619 4.50111L56.8966 3.87585L58.8095 0.000488281Z" fill="#C72535"/>
</g>
</svg>
