<svg width="23" height="21" viewBox="0 0 23 21" fill="none" xmlns="http://www.w3.org/2000/svg">
<path id="Vector" d="M20.2913 2.61097C19.7805 2.09993 19.1741 1.69455 18.5066 1.41796C17.8392 1.14138 17.1238 0.999023 16.4013 0.999023C15.6788 0.999023 14.9634 1.14138 14.2959 1.41796C13.6284 1.69455 13.022 2.09993 12.5113 2.61097L11.4513 3.67104L10.3913 2.61097C9.35956 1.5792 7.96028 0.999558 6.50124 0.999558C5.04221 0.999558 3.64293 1.5792 2.61123 2.61097C1.57954 3.64273 0.999939 5.04211 0.999939 6.50125C0.999939 7.96039 1.57954 9.35977 2.61123 10.3915L3.67124 11.4516L11.4513 19.2322L19.2313 11.4516L20.2913 10.3915C20.8023 9.88074 21.2076 9.27427 21.4842 8.60676C21.7608 7.93925 21.9031 7.22379 21.9031 6.50125C21.9031 5.77871 21.7608 5.06325 21.4842 4.39574C21.2076 3.72823 20.8023 3.12176 20.2913 2.61097V2.61097Z" stroke="#030D15" stroke-width="2" stroke-linecap="round" stroke-linejoin="round"/>
</svg>
